<svg xmlns="http://www.w3.org/2000/svg"  viewBox="0 0 48 48" width="48px" height="48px" baseProfile="basic"><linearGradient id="ECa3sBvKzKlz32VH13h6wa" x1="24" x2="24" y1="6" y2="42" gradientUnits="userSpaceOnUse"><stop offset="0" stop-color="#7e8b96"/><stop offset="1" stop-color="#586169"/></linearGradient><path fill="url(#ECa3sBvKzKlz32VH13h6wa)" d="M42,9v30c0,1.657-1.343,3-3,3H9c-1.657,0-3-1.343-3-3V9c0-1.657,1.343-3,3-3h30	C40.657,6,42,7.343,42,9z"/><path fill="#fff" d="M35.511,21.844c-1.066-5.171-7.112-6.882-10.92-3.344c-0.173,0.161-0.174,0.425-0.37,0.448	l1.89-8.701h-6.684L13.187,39l7.478-3.934l0.277-1.741l1.763,1.326C30.903,38.409,37.052,29.323,35.511,21.844z M26.116,29.482	c-1.284,0.363-3.306,0.009-4.01-1.236l1.049-4.498c0.612-0.51,1.22-0.988,2.043-1.109C29.824,21.96,29.808,28.439,26.116,29.482z"/></svg>