<svg xmlns="http://www.w3.org/2000/svg"  viewBox="0 0 48 48" width="48px" height="48px"><linearGradient id="hUkzEwsRPSuylHAujM58Ma" x1="3.507" x2="41.549" y1="1.856" y2="42.962" gradientUnits="userSpaceOnUse"><stop offset="0" stop-color="#41474a"/><stop offset="1" stop-color="#323538"/></linearGradient><path fill="url(#hUkzEwsRPSuylHAujM58Ma)" d="M40,6H8C6.895,6,6,6.895,6,8v32c0,1.105,0.895,2,2,2h32c1.105,0,2-0.895,2-2V8	C42,6.895,41.105,6,40,6z"/><g opacity=".07"><path d="M33.122,21.019h-2.44c-0.22,0-0.407,0.142-0.474,0.34c-0.65-0.371-1.374-0.56-2.143-0.56c-1.438,0-2.838,0.691-3.655,1.803 c-0.977,1.329-1.324,2.844-1.032,4.503c0.294,1.668,1.167,2.868,2.594,3.565c0.726,0.355,1.445,0.535,2.138,0.535 c0.723,0,1.424-0.194,2.093-0.579c0.062,0.205,0.253,0.354,0.478,0.354h2.44c0.276,0,0.5-0.224,0.5-0.5v-8.961 C33.622,21.243,33.398,21.019,33.122,21.019z M28.506,27.891c-0.643,0-1.114-0.283-1.438-0.865 c-0.433-0.776-0.289-1.909,0.315-2.473c0.305-0.285,0.715-0.442,1.152-0.442c0.587,0,1.363,0.305,1.618,1.163 c0.055,0.187,0.092,0.379,0.129,0.571c0.015,0.078,0.03,0.155,0.046,0.233c-0.052,0.905-0.625,1.804-1.805,1.813L28.506,27.891z"/><path d="M14.04,24.214c0.194-0.05,0.385-0.076,0.567-0.076c0.54,0,1.043,0.216,1.583,0.678c0.094,0.081,0.21,0.12,0.325,0.12 c0.137,0,0.272-0.056,0.371-0.165l1.115-1.233l0.278-0.307c0.097-0.05,0.176-0.131,0.224-0.233 c0.075-0.162,0.054-0.356-0.047-0.502c-0.019-0.028-0.041-0.053-0.065-0.077c-0.001-0.001-0.002-0.002-0.003-0.003 c-1.024-1.059-2.38-1.643-3.818-1.643c-1.352,0-2.674,0.516-3.724,1.454c-0.955,0.853-1.491,1.98-1.595,3.352 c-0.12,1.598,0.358,2.956,1.422,4.037c0.993,1.008,2.392,1.586,3.839,1.586c0.93,0,1.846-0.237,2.65-0.684 c0.322-0.179,0.595-0.409,0.859-0.63c0.079-0.067,0.159-0.134,0.239-0.198c0.169-0.136,0.267-0.319,0.276-0.516 c0.007-0.144-0.031-0.361-0.249-0.575c-0.179-0.175-0.353-0.354-0.527-0.534c-0.137-0.141-0.274-0.282-0.413-0.421 c-0.11-0.11-0.226-0.215-0.341-0.319l-0.142-0.129c-0.096-0.088-0.217-0.132-0.339-0.132c-0.123,0-0.247,0.045-0.343,0.136 c-0.457,0.431-1.033,0.668-1.622,0.668c-0.484,0-0.936-0.163-1.209-0.436c-0.688-0.689-0.798-1.805-0.248-2.541 C13.378,24.523,13.675,24.309,14.04,24.214z"/><path d="M21.118,27.071l-0.101,0.001c-1.023,0.027-1.796,0.904-1.798,2.04c-0.001,0.58,0.211,1.112,0.598,1.5 c0.369,0.37,0.866,0.573,1.399,0.573c0.574,0,1.098-0.211,1.476-0.593c0.365-0.369,0.564-0.869,0.559-1.408 C23.24,27.842,22.463,27.071,21.118,27.071z"/><path d="M38.118,21.017h-2.467c-0.276,0-0.5,0.224-0.5,0.5v8.969c0,0.276,0.224,0.5,0.5,0.5h2.467c0.276,0,0.5-0.224,0.5-0.5 v-8.969C38.618,21.241,38.394,21.017,38.118,21.017z"/><path d="M36.904,20.611c0.005,0,0.048-0.001,0.052-0.001c0.503-0.013,0.966-0.213,1.303-0.562c0.339-0.352,0.519-0.821,0.505-1.321 c-0.033-1.227-0.756-1.931-1.983-1.931l-0.107,0.002c-0.861,0.027-1.7,0.975-1.693,1.913 C34.989,19.758,35.851,20.611,36.904,20.611z"/></g><g opacity=".05"><path d="M33.122,20.519h-2.44c-0.23,0-0.441,0.077-0.61,0.208c-0.617-0.282-1.295-0.428-2.007-0.428 c-1.594,0-3.149,0.769-4.058,2.007c-1.049,1.428-1.427,3.052-1.129,4.827c-0.442-0.359-1.031-0.562-1.76-0.562l-0.114,0.001 c-1.067,0.028-1.934,0.814-2.196,1.879c-0.049-0.07-0.098-0.141-0.169-0.211c-0.176-0.172-0.347-0.349-0.518-0.525 c-0.139-0.143-0.277-0.286-0.418-0.426c-0.117-0.117-0.239-0.227-0.36-0.337l-0.138-0.126c-0.191-0.176-0.434-0.264-0.677-0.264 c-0.247,0-0.493,0.091-0.686,0.272c-0.364,0.343-0.818,0.531-1.279,0.531c-0.418,0-0.716-0.149-0.855-0.289 c-0.508-0.509-0.599-1.356-0.201-1.889c0.204-0.274,0.408-0.425,0.661-0.49c0.153-0.04,0.302-0.06,0.442-0.06 c0.414,0,0.814,0.177,1.258,0.558c0.188,0.161,0.42,0.241,0.65,0.241c0.273,0,0.545-0.111,0.742-0.329l0.584-0.646l0.769-0.85 c0.146-0.099,0.268-0.234,0.346-0.401c0.153-0.329,0.111-0.719-0.098-1.012c-0.018-0.025-0.047-0.038-0.068-0.061 c-0.017-0.021-0.025-0.047-0.044-0.067c-1.119-1.158-2.603-1.796-4.178-1.796c-1.474,0-2.914,0.561-4.055,1.58 c-1.055,0.942-1.647,2.182-1.76,3.688c-0.13,1.724,0.411,3.254,1.565,4.425c1.086,1.103,2.615,1.735,4.195,1.735 c1.015,0,2.015-0.259,2.893-0.748c0.364-0.203,0.668-0.459,0.937-0.685c0.077-0.065,0.154-0.129,0.231-0.192 c0.101-0.082,0.168-0.185,0.238-0.286c0.113,0.445,0.328,0.851,0.65,1.174c0.464,0.464,1.086,0.72,1.753,0.72 c0.709-0.001,1.359-0.264,1.831-0.741c0.415-0.419,0.647-0.972,0.686-1.57c0.491,0.738,1.161,1.326,2.019,1.745 c0.795,0.388,1.588,0.585,2.358,0.585c0.672,0,1.324-0.148,1.95-0.441c0.171,0.135,0.386,0.216,0.621,0.216h2.44 c0.552,0,1-0.448,1-1v-8.961C34.122,20.967,33.674,20.519,33.122,20.519z M28.506,27.391c-0.458,0-0.767-0.188-1.002-0.608 c-0.324-0.581-0.221-1.452,0.22-1.864c0.212-0.198,0.5-0.308,0.811-0.308h0c0.415,0,0.962,0.211,1.138,0.805 c0.051,0.171,0.084,0.348,0.118,0.524c0.011,0.055,0.021,0.11,0.032,0.165c-0.036,0.334-0.231,1.277-1.304,1.285L28.506,27.391z"/><path d="M38.407,20.575c0.072-0.059,0.147-0.113,0.212-0.18c0.433-0.449,0.662-1.046,0.645-1.682 c-0.04-1.491-0.992-2.418-2.483-2.418l-0.122,0.002c-1.128,0.035-2.186,1.21-2.177,2.417c0.005,0.751,0.366,1.415,0.914,1.855 c-0.425,0.115-0.744,0.487-0.744,0.948v8.969c0,0.552,0.448,1,1,1h2.467c0.552,0,1-0.448,1-1v-8.969 C39.118,21.067,38.816,20.701,38.407,20.575z"/></g><path fill="#fff" d="M30.682,22.296c0-0.289,0-0.526,0-0.776c0.822,0,1.621,0,2.44,0c0,2.98,0,5.961,0,8.961 c-0.802,0-1.606,0-2.44,0c0-0.243,0-0.484,0-0.762c-0.078,0.044-0.123,0.062-0.159,0.09c-1.356,1.058-2.805,1.158-4.331,0.412 c-1.341-0.655-2.068-1.764-2.321-3.203c-0.264-1.502,0.025-2.872,0.942-4.12c1.25-1.701,3.942-2.209,5.701-0.715 C30.55,22.214,30.593,22.237,30.682,22.296z M30.83,26.037c-0.065-0.302-0.111-0.61-0.198-0.905 c-0.467-1.575-2.47-1.991-3.591-0.944c-0.774,0.724-0.961,2.097-0.411,3.082c0.42,0.753,1.07,1.127,1.897,1.121 C30.017,28.379,30.791,27.206,30.83,26.037z"/><path fill="#fff" d="M18.033,22.76c-0.514,0.568-1.009,1.115-1.517,1.677c-0.792-0.679-1.624-0.96-2.601-0.707 c-0.521,0.135-0.904,0.448-1.212,0.861c-0.705,0.944-0.556,2.342,0.295,3.194c0.733,0.734,2.346,0.892,3.528-0.222 c0.155,0.143,0.318,0.283,0.469,0.434c0.317,0.317,0.624,0.645,0.944,0.959c0.126,0.124,0.136,0.242,0.008,0.345 c-0.335,0.27-0.655,0.574-1.027,0.781c-1.91,1.064-4.355,0.742-5.889-0.816c-0.983-0.998-1.386-2.247-1.28-3.648 c0.089-1.188,0.531-2.215,1.429-3.017c2.003-1.788,4.958-1.807,6.862,0.177C18.052,22.787,18.058,22.801,18.033,22.76z"/><path fill="#fff" d="M22.75,29.189c0.008,0.856-0.647,1.496-1.533,1.496c-0.848,0.001-1.5-0.672-1.498-1.572 c0.001-0.82,0.535-1.521,1.311-1.541C22.01,27.546,22.741,27.942,22.75,29.189z"/><path fill="#fff" d="M35.651,21.517c0.827,0,1.641,0,2.467,0c0,2.994,0,5.975,0,8.969c-0.824,0-1.638,0-2.467,0 C35.651,27.501,35.651,24.52,35.651,21.517z"/><path fill="#fff" d="M38.264,18.74c0.02,0.755-0.554,1.35-1.322,1.37c-0.796,0.021-1.456-0.612-1.461-1.403 c-0.005-0.668,0.615-1.392,1.209-1.41C37.704,17.265,38.238,17.754,38.264,18.74z"/></svg>