<svg xmlns="http://www.w3.org/2000/svg"  viewBox="0 0 48 48" width="48px" height="48px" fill-rule="evenodd" clip-rule="evenodd"><linearGradient id="Au7ExGgtJVEww8niyHmgma" x1="3.999" x2="42.297" y1="4.599" y2="41.748" gradientUnits="userSpaceOnUse"><stop offset="0" stop-color="#696ae0"/><stop offset="1" stop-color="#693ee0"/></linearGradient><circle cx="24" cy="24" r="20" fill="url(#Au7ExGgtJVEww8niyHmgma)" fill-rule="evenodd" clip-rule="evenodd"/><path d="M35.678,26.286c-1.977,0-6.751,0.044-6.751,0.044L28.2,26.337l-0.417,0.004l-0.07,0.411L27.59,27.47	c-0.023,0.136-0.097,0.481-0.182,0.691c-0.535,1.32-1.403,1.884-2.903,1.884c-0.08,0-0.162-0.002-0.246-0.005	c-1.549-0.061-2.55-0.827-3.148-2.412c-0.855-2.261-0.905-4.606-0.151-6.972c0.581-1.821,1.746-2.745,3.463-2.745	c0.251,0,0.516,0.02,0.789,0.059c1.091,0.158,1.92,1.198,2.535,3.179l0.19,0.612l0.109,0.352h0.368h8.222h0.532l-0.033-0.531	l-0.057-0.923c-0.394-6.414-5.856-11.07-12.988-11.07c-0.16,0-0.319,0.002-0.481,0.007c-7.655,0.238-12.777,6.067-12.746,14.503	c0.032,8.617,5.275,14.1,13.685,14.31c0.114,0.003,0.228,0.004,0.341,0.004c6.49,0,11.83-4.692,12.156-10.682l0.05-0.917	l0.029-0.527h-0.528H35.678z" opacity=".07"/><path d="M35.678,25.786c-1.978,0-6.755,0.044-6.755,0.044l-0.729,0.008l-0.835,0.009l-0.14,0.823	l-0.122,0.717c-0.021,0.123-0.089,0.43-0.152,0.589c-0.457,1.13-1.141,1.571-2.439,1.571c-0.074,0-0.149-0.002-0.226-0.005	c-1.341-0.053-2.174-0.697-2.7-2.089c-0.814-2.153-0.862-4.388-0.142-6.643c0.515-1.613,1.491-2.397,2.986-2.397	c0.227,0,0.469,0.018,0.718,0.054c0.867,0.126,1.584,1.079,2.128,2.832l0.19,0.612l0.219,0.703h0.736h8.222H37.7l-0.065-1.062	l-0.057-0.923c-0.411-6.686-6.083-11.539-13.487-11.54h0c-0.164,0-0.329,0.002-0.495,0.007C15.648,9.343,10.332,15.373,10.364,24.1	c0.033,8.917,5.463,14.591,14.172,14.808c0.119,0.003,0.236,0.004,0.354,0.004c6.755,0,12.314-4.9,12.655-11.154l0.05-0.917	l0.058-1.055h-1.056H35.678z" opacity=".05"/><path fill="#fff" d="M25.283,17.475c1.302,0.188,2.264,1.342,2.942,3.526l0.19,0.611h8.222l-0.057-0.923 c-0.391-6.36-5.829-10.797-12.955-10.594c-7.363,0.229-12.29,5.856-12.261,14.001c0.031,8.318,5.087,13.61,13.197,13.812 c0.11,0.003,0.219,0.003,0.329,0.003c6.25,0,11.342-4.429,11.657-10.209l0.05-0.917h-0.918c-1.975,0-6.746,0.044-6.746,0.044 l-0.728,0.008l-0.122,0.717c-0.022,0.131-0.104,0.528-0.211,0.794c-0.644,1.59-1.773,2.265-3.632,2.192 c-1.75-0.069-2.927-0.964-3.596-2.735c-0.895-2.368-0.949-4.824-0.16-7.3C21.227,18.176,22.883,17.132,25.283,17.475z"/></svg>