<?xml version="1.0" encoding="UTF-8"?>
<svg id="logosandtypes_com" data-name="logosandtypes com" xmlns="http://www.w3.org/2000/svg" viewBox="0 0 150 150">
  <defs>
    <style>
      .cls-1 {
        fill: #027e6f;
      }

      .cls-2 {
        fill: none;
      }
    </style>
  </defs>
  <path class="cls-2" d="M0,0H150V150H0V0Z"/>
  <path class="cls-1" d="M75.54,9.07C38.71,9.07,8.85,38.92,8.85,75.76v66.68H75.56c4.59,0,9.09-.46,13.43-1.35,30.39-6.22,53.24-33.1,53.24-65.33,0-36.84-29.85-66.69-66.69-66.69Zm.13,112.92c-26.36,0-47.65-22.07-46.36-48.71,1.12-23.2,19.92-42.42,43.1-44.01,13.62-.96,26.11,4.03,35.15,12.59l-6.35,11c-6.27-7.03-15.39-11.47-25.52-11.47-24.57,0-43.19,26.11-29.56,52.06,2.68,5.1,6.83,9.17,11.93,11.81,23.69,12.28,47.4-2.24,51.28-23.55h-24.78l7.08-12.26h30.05c.26,2,.42,4.04,.42,6.12,0,25.6-20.08,46.43-46.43,46.43Z"/>
</svg>