<svg xmlns="http://www.w3.org/2000/svg"  viewBox="0 0 48 48" width="48px" height="48px"><linearGradient id="uFWV4zdHt7o8jPnGe0evHa" x1="6.451" x2="22" y1="21.5" y2="21.5" gradientUnits="userSpaceOnUse"><stop offset="0" stop-color="#ec3864"/><stop offset=".994" stop-color="#dc94ad"/></linearGradient><path fill="url(#uFWV4zdHt7o8jPnGe0evHa)" d="M22,25H9.5c-0.98,0-1.866-0.9-2.502-1.787c-0.73-1.02-0.73-2.405,0-3.425	C7.634,18.9,8.52,18,9.5,18H22V25z"/><path fill="#252525" d="M9.5,25H22v-7H11.188c0.399,2.178,1.437,4.169,2.996,5.734	c-1.347,0.088-3.092,0.186-4.734,0.268c-0.001,0-0.002,0-0.003,0c-0.459,0-0.921,0.137-1.379,0.393C8.506,24.754,8.99,25,9.5,25z" opacity=".05"/><path fill="#252525" d="M22,25v-7H11.704c0.466,2.417,1.753,4.588,3.69,6.151	c-1.392,0.106-3.75,0.242-5.919,0.35c0,0-0.001,0-0.001,0c-0.309,0-0.621,0.078-0.933,0.218C8.846,24.89,9.167,25,9.5,25H22z" opacity=".07"/><linearGradient id="uFWV4zdHt7o8jPnGe0evHb" x1="16.322" x2="33.747" y1="5.186" y2="45.973" gradientUnits="userSpaceOnUse"><stop offset="0" stop-color="#ec3864"/><stop offset=".994" stop-color="#563ae2"/></linearGradient><path fill="url(#uFWV4zdHt7o8jPnGe0evHb)" d="M22,6c-5.523,0-10,4.477-10,10	c0,3.595,1.903,6.738,4.751,8.5C16.505,24.652,9.5,25,9.5,25c-0.981,0-1.867,0.901-2.502,1.788c-0.73,1.019-0.73,2.405,0,3.424	C7.633,31.099,8.519,32,9.5,32h2.566C12.033,32.33,12,32.661,12,33c0,5.523,4.477,10,10,10s22-10,22-18.5S27.523,6,22,6z"/><path fill="#252525" d="M34,23.5H22c-3.033,0-5.5,2.467-5.5,5.5s2.467,5.5,5.5,5.5	c9.265,0,12.448-10.253,12.479-10.356l0.193-0.644H34z" opacity=".07"/><path fill="#252525" d="M34,23H22c-3.308,0-6,2.692-6,6s2.692,6,6,6c9.633,0,12.926-10.606,12.958-10.713	L35.344,23H34z" opacity=".05"/><linearGradient id="uFWV4zdHt7o8jPnGe0evHc" x1="24.495" x2="26.666" y1="20.315" y2="34.103" gradientUnits="userSpaceOnUse"><stop offset="0" stop-color="#ec3864"/><stop offset=".994" stop-color="#dc94ad"/></linearGradient><path fill="url(#uFWV4zdHt7o8jPnGe0evHc)" d="M22,34L22,34c-2.761,0-5-2.239-5-5v0	c0-2.761,2.239-5,5-5h12C34,24,31,34,22,34z"/><circle cx="34" cy="19" r="3" fill="#252525" opacity=".05"/><circle cx="34" cy="19" r="2.5" fill="#252525" opacity=".07"/><circle cx="34" cy="19" r="2" fill="#fff"/></svg>