<svg xmlns="http://www.w3.org/2000/svg"  viewBox="0 0 48 48" width="48px" height="48px" fill-rule="evenodd" clip-rule="evenodd"><path fill="#007aff" d="M2.278,10h43.445C46.98,10,48,11.013,48,12.263v24.473C48,37.987,46.98,39,45.722,39H2.278	C1.02,39,0,37.987,0,36.737V12.263C0,11.013,1.02,10,2.278,10z"/><g opacity=".07"><path d="M28.83,17.41c-1.27,0-2.303,1.059-2.303,2.361v9.492c0,1.302,1.033,2.361,2.303,2.361c1.27,0,2.303-1.059,2.303-2.361 v-9.492C31.133,18.469,30.1,17.41,28.83,17.41z"/><path d="M23.782,17.41c-1.27,0-2.303,1.059-2.303,2.361v9.492c0,1.302,1.033,2.361,2.303,2.361c1.27,0,2.303-1.059,2.303-2.361 v-9.492C26.085,18.469,25.052,17.41,23.782,17.41z"/><path d="M33.879,21.691c-1.27,0-2.303,1.059-2.303,2.361v1.117c0,1.302,1.033,2.361,2.303,2.361c1.27,0,2.303-1.059,2.303-2.361 v-1.117C36.182,22.75,35.149,21.691,33.879,21.691z"/><path d="M38.927,19.832c-1.27,0-2.303,1.059-2.303,2.361v4.653c0,1.302,1.033,2.361,2.303,2.361s2.303-1.059,2.303-2.361v-4.653 C41.23,20.891,40.197,19.832,38.927,19.832z"/><path d="M13.956,17.228c-3.904,0-7.081,3.272-7.081,7.293s3.177,7.293,7.081,7.293c3.904,0,7.081-3.272,7.081-7.293 S17.86,17.228,13.956,17.228z M13.962,27.248c-1.471,0-2.669-1.243-2.669-2.771s1.197-2.771,2.669-2.771 c1.471,0,2.669,1.243,2.669,2.771S15.434,27.248,13.962,27.248z"/></g><path d="M38.927,19.332c-1.546,0-2.803,1.284-2.803,2.861v0.163c-0.511-0.703-1.323-1.165-2.245-1.165	c-0.922,0-1.735,0.463-2.246,1.167v-2.586c0-1.578-1.257-2.861-2.803-2.861c-1.116,0-2.073,0.674-2.524,1.639	c-0.451-0.966-1.408-1.639-2.524-1.639c-1.546,0-2.803,1.284-2.803,2.861V21.6c-1.127-2.853-3.848-4.872-7.023-4.872	c-4.18,0-7.581,3.496-7.581,7.793s3.401,7.793,7.581,7.793c3.175,0,5.896-2.019,7.023-4.872v1.821c0,1.578,1.257,2.861,2.803,2.861	c1.116,0,2.073-0.674,2.524-1.639c0.451,0.966,1.408,1.639,2.524,1.639c1.546,0,2.803-1.284,2.803-2.861v-2.4	c0.511,0.704,1.324,1.167,2.246,1.167c0.922,0,1.735-0.463,2.246-1.167c0.009,1.57,1.261,2.845,2.801,2.845	c1.546,0,2.803-1.284,2.803-2.861v-4.653C41.73,20.616,40.473,19.332,38.927,19.332z M13.962,26.748	c-1.196,0-2.169-1.019-2.169-2.271s0.973-2.271,2.169-2.271c1.196,0,2.169,1.019,2.169,2.271S15.158,26.748,13.962,26.748z" opacity=".05"/><path fill="#fff" fill-rule="evenodd" d="M28.83,17.91c0.996,0,1.803,0.833,1.803,1.861v9.492	c0,1.028-0.807,1.861-1.803,1.861c-0.996,0-1.803-0.833-1.803-1.861v-9.492C27.027,18.743,27.834,17.91,28.83,17.91z" clip-rule="evenodd"/><path fill="#fff" fill-rule="evenodd" d="M23.782,17.91c0.996,0,1.803,0.833,1.803,1.861v9.492	c0,1.028-0.807,1.861-1.803,1.861c-0.996,0-1.803-0.833-1.803-1.861v-9.492C21.979,18.743,22.786,17.91,23.782,17.91z" clip-rule="evenodd"/><path fill="#fff" fill-rule="evenodd" d="M33.879,22.191c0.996,0,1.803,0.833,1.803,1.861v1.117	c0,1.028-0.807,1.861-1.803,1.861s-1.803-0.833-1.803-1.861v-1.117C32.076,23.024,32.884,22.191,33.879,22.191z" clip-rule="evenodd"/><path fill="#fff" fill-rule="evenodd" d="M38.927,20.332c0.996,0,1.803,0.833,1.803,1.861v4.653	c0,1.028-0.807,1.861-1.803,1.861c-0.996,0-1.803-0.833-1.803-1.861v-4.653C37.124,21.165,37.931,20.332,38.927,20.332z" clip-rule="evenodd"/><path fill="#fff" d="M13.962,27.748c1.75,0,3.169-1.464,3.169-3.271s-1.419-3.271-3.169-3.271s-3.169,1.464-3.169,3.271	S12.212,27.748,13.962,27.748z M13.956,31.314c-3.635,0-6.581-3.041-6.581-6.793c0-3.752,2.946-6.793,6.581-6.793	c3.635,0,6.581,3.041,6.581,6.793C20.537,28.273,17.59,31.314,13.956,31.314z"/></svg>