<svg width="72" height="72" viewBox="0 0 72 72" fill="none" xmlns="http://www.w3.org/2000/svg">
<rect width="72" height="72" fill="#2F43FA"/>
<path fill-rule="evenodd" clip-rule="evenodd" d="M19.6244 28.4053C21.1497 26.1763 22.4725 25.0741 24.453 25.6864C25.6514 26.0569 26.1433 27.5867 25.6514 29.5063C24.7864 32.8816 24.453 34.819 24.453 37.1249C27.4952 30.7484 33.1191 22.2734 35.5564 19.4229C37.2411 17.4526 39.6559 17.7039 40.5649 18.1433C42.042 18.8574 42.12 20.4057 41.6102 21.8865C38.0829 32.1308 37.9601 37.6022 37.527 42.9177C39.7191 37.0225 42.3844 31.4772 45.603 27.5718C46.9591 25.6986 49.3359 25.1106 50.8371 25.7191C52.3384 26.3276 52.6806 27.7834 52.3384 29.6078C51.4461 34.3653 51.0033 36.5951 51.0033 38.4381C52.6335 37.1912 53.9316 36.1378 56.8993 35.897C59.8669 35.6562 66 36.8377 66 36.8377C66 36.8377 62.4594 37.4393 60.5894 37.8979C56.7556 38.838 55.4168 39.9374 52.9351 43.572C52.214 44.6281 51.0033 45.439 49.6392 45.3358C48.2751 45.2327 47.3593 44.3746 46.9591 43.2157C46.4029 41.605 46.2376 39.1957 46.9591 33.9818C43.4234 39.3611 41.6102 46.6682 39.1876 51.5139C38.5682 52.7529 37.5103 54.1647 36.0767 54.1647C34.643 54.1647 32.7839 53.6087 32.5425 49.3492C31.9243 38.4381 33.9855 29.7553 33.9855 29.7553C29.9707 36.1211 28.6885 39.8317 27.292 41.7667C25.8955 43.7016 24.5404 45.3772 22.892 45.3358C21.2437 45.2945 20.2844 43.4517 20.0758 41.7667C19.8672 40.0816 19.8072 37.9296 20.4164 33.9818C18.8306 35.5676 17.4362 36.6416 14.939 37.3141C12.4419 37.9866 9.45993 37.5586 6 36.8377C9.45993 36.8377 15.2824 34.7503 19.6244 28.4053Z" fill="white"/>
</svg>
