<svg xmlns="http://www.w3.org/2000/svg"  viewBox="0 0 48 48" width="48px" height="48px" baseProfile="basic"><linearGradient id="SfD2klaBA6F1Kuud-CpAYa" x1="24" x2="24" y1="6.001" y2="41.999" gradientUnits="userSpaceOnUse"><stop offset="0" stop-color="#f9f3e9"/><stop offset="1" stop-color="#f9e9cd"/></linearGradient><path fill="url(#SfD2klaBA6F1Kuud-CpAYa)" d="M39.002,41.97L9.033,41.999c-1.65,0.002-3.001-1.347-3.003-2.997L6.001,9.033	C5.999,7.383,7.348,6.031,8.998,6.03l29.969-0.029c1.65-0.002,3.001,1.347,3.003,2.997l0.029,29.969	C42.001,40.617,40.652,41.969,39.002,41.97z"/><path fill="#0b100f" d="M37.544,16.085h-0.261c-1.374-0.002-2.489,1.111-2.489,2.484v5.556c0,1.11-0.917,2.008-2.009,2.008	c-0.648,0-1.296-0.326-1.68-0.874l-5.675-8.105c-0.471-0.673-1.237-1.074-2.066-1.074c-1.294,0-2.458,1.1-2.458,2.458v5.589	c0,1.11-0.91,2.008-2.009,2.008c-0.651,0-1.297-0.326-1.681-0.874l-6.35-9.07c-0.143-0.205-0.466-0.104-0.466,0.147v4.846	c0,0.245,0.075,0.483,0.215,0.684l6.25,8.925c0.369,0.527,0.914,0.919,1.542,1.061c1.572,0.357,3.019-0.853,3.019-2.395v-5.585	c0-1.11,0.899-2.008,2.009-2.008h0.003c0.669,0,1.296,0.326,1.68,0.874l5.676,8.104c0.472,0.674,1.199,1.074,2.065,1.074	c1.323,0,2.456-1.101,2.456-2.458v-5.587c0-1.11,0.899-2.008,2.009-2.008h0.222c0.139,0,0.252-0.112,0.252-0.251v-5.276	c0-0.139-0.112-0.251-0.252-0.251H37.544z"/></svg>