<svg version="1.1" id="Layer_1" xmlns:x="ns_extend;" xmlns:i="ns_ai;" xmlns:graph="ns_graphs;" xmlns="http://www.w3.org/2000/svg" xmlns:xlink="http://www.w3.org/1999/xlink" x="0px" y="0px" viewBox="0 0 82.7 75" style="enable-background:new 0 0 82.7 75;" xml:space="preserve">
 <style type="text/css">
  .st0{fill:#00CDFA;}
	.st1{fill:url(#SVGID_1_);}
	.st2{fill:#3A00FF;}
	.st3{fill:#FFFFFF;}
 </style>
 <metadata>
  <sfw xmlns="ns_sfw;">
   <slices>
   </slices>
   <sliceSourceBounds bottomLeftOrigin="true" height="75" width="82.7" x="-181.1" y="77.7">
   </sliceSourceBounds>
  </sfw>
 </metadata>
 <g>
  <path class="st0" d="M27,11.7h45.8l0.7-2.9c1-4.5-2.5-8.8-7.1-8.8H21.9c-5.8,0-10.7,4-12,9.6L0.2,54.5c-1,4.5,2.5,8.8,7.1,8.8h2.7
		l9.9-45.9C20.6,14.1,23.6,11.7,27,11.7z">
  </path>
  <linearGradient id="SVGID_1_" gradientUnits="userSpaceOnUse" x1="9.1743" y1="232.0482" x2="82.7363" y2="232.0482" gradientTransform="matrix(1 0 0 -1 0 275.3897)">
   <stop offset="0" style="stop-color:#FFB3FF">
   </stop>
   <stop offset="0.5335" style="stop-color:#FF76DF">
   </stop>
   <stop offset="1" style="stop-color:#C239C6">
   </stop>
  </linearGradient>
  <path class="st1" d="M75.5,11.7h-2.7l-9.9,45.9c-0.7,3.3-3.7,5.7-7.1,5.7H10l-0.7,2.9c-1,4.5,2.5,8.8,7.1,8.8h44.5
		c5.8,0,10.7-4,12-9.6l9.7-44.9C83.5,15.9,80.1,11.7,75.5,11.7z">
  </path>
  <path class="st2" d="M62.8,57.6l9.9-45.9H27c-3.4,0-6.4,2.4-7.1,5.7L10,63.3h45.8C59.2,63.3,62.1,60.9,62.8,57.6z">
  </path>
  <path class="st3" d="M24.9,45.8l-3.3-17.2h5.2l1.6,10.7l5.3-10.7h3.5l2.1,10.7L44,28.6h5.2l-8.4,17.2h-4.3l-2.1-10.1l-5.1,10.1
		H24.9z">
  </path>
  <path class="st3" d="M47.3,43l2.7-3.1c1.2,1.5,2.8,2.3,4.7,2.3c1.2,0,2.3-0.5,2.5-1.4c0.1-0.5-0.3-0.9-1.1-1.3
		c-0.2-0.1-0.6-0.2-1.3-0.5c-1.3-0.5-1.9-0.7-3-1.4c-1.6-1-2.3-2.3-2.1-4.7c0.5-3.2,3.4-4.9,7.1-4.9c2.5,0,4.6,0.8,6.3,2.5l-2.7,3.1
		c-1.1-1-2.4-1.5-3.8-1.5c-1.2,0-1.9,0.3-2,1.1c-0.1,0.6,0.2,1.1,0.9,1.4c0.2,0.1,0.8,0.3,1.5,0.6c0.8,0.3,1.4,0.5,1.9,0.8
		c1.7,0.7,3.7,2.4,3.1,4.9c-0.3,1.7-1.1,3-2.6,3.9c-1.4,0.9-3.1,1.4-5,1.4C51.4,46.3,49,45.2,47.3,43z">
  </path>
 </g>
</svg>